<?xml version="1.0" standalone="no"?>
<!DOCTYPE svg PUBLIC "-//W3C//DTD SVG 20010904//EN"
 "http://www.w3.org/TR/2001/REC-SVG-20010904/DTD/svg10.dtd">
<svg version="1.0" xmlns="http://www.w3.org/2000/svg"
 width="418.000000pt" height="596.000000pt" viewBox="0 0 418.000000 596.000000"
 preserveAspectRatio="xMidYMid meet">

<g transform="translate(0.000000,596.000000) scale(0.100000,-0.100000)"
fill="#000000" stroke="none">
<path d="M1811 3834 c0 -11 3 -14 6 -6 3 7 2 16 -1 19 -3 4 -6 -2 -5 -13z"/>
<path d="M1789 3793 c-13 -16 -12 -17 4 -4 9 7 17 15 17 17 0 8 -8 3 -21 -13z"/>
<path d="M1982 3782 c-26 -20 -35 -23 -42 -13 -4 8 -10 9 -14 3 -11 -18 26
-23 50 -7 30 20 38 19 29 -2 -5 -14 -3 -15 5 -7 7 7 10 21 8 32 -3 19 -4 19
-36 -6z"/>
<path d="M1816 3754 c-4 -14 -5 -29 -2 -31 3 -3 8 7 12 21 3 15 4 29 1 32 -2
3 -8 -7 -11 -22z"/>
<path d="M1974 3718 l-19 -23 23 19 c21 18 27 26 19 26 -2 0 -12 -10 -23 -22z"/>
<path d="M1790 3687 c-12 -21 -12 -21 6 -7 10 8 20 15 22 16 2 1 -1 4 -5 7 -5
3 -15 -4 -23 -16z"/>
<path d="M1927 3668 c-10 -11 -17 -22 -15 -24 3 -2 15 7 28 21 13 14 19 25 14
24 -5 0 -17 -10 -27 -21z"/>
<path d="M1734 3642 c-29 -24 -75 -100 -74 -119 1 -4 12 13 26 40 26 50 39 61
30 25 l-6 -23 11 22 c14 27 36 33 134 33 51 0 75 4 66 9 -8 5 -28 8 -45 5 -17
-2 -57 -5 -90 -8 l-58 -5 23 25 c30 32 22 30 -17 -4z"/>
<path d="M1640 3600 c-6 -11 -8 -20 -6 -20 3 0 10 9 16 20 6 11 8 20 6 20 -3
0 -10 -9 -16 -20z"/>
<path d="M2019 3566 c23 -24 29 -35 19 -39 -8 -4 -9 -6 -1 -6 23 -2 25 21 4
35 -12 9 -18 20 -15 26 4 7 2 8 -4 4 -7 -4 -12 -2 -12 3 0 6 -5 11 -12 11 -7
0 3 -15 21 -34z"/>
<path d="M1690 3519 c-7 -24 -19 -66 -27 -92 -9 -26 -13 -50 -11 -52 3 -3 17
36 32 86 15 50 25 93 22 96 -2 3 -10 -15 -16 -38z"/>
<path d="M1816 3534 c-3 -9 -6 -21 -5 -27 0 -7 4 -3 8 8 5 12 21 22 42 26 l34
6 -36 2 c-25 1 -39 -4 -43 -15z"/>
<path d="M1606 3508 c-3 -13 -5 -32 -5 -43 1 -11 5 -2 10 19 10 42 6 62 -5 24z"/>
<path d="M1980 3520 c8 -5 22 -9 30 -9 10 0 8 3 -5 9 -27 12 -43 12 -25 0z"/>
<path d="M1626 3443 c-17 -36 -32 -59 -36 -53 -4 7 -13 -8 -19 -32 -7 -24 -15
-50 -18 -58 -3 -8 7 3 22 25 33 47 88 162 83 174 -2 5 -16 -20 -32 -56z"/>
<path d="M2010 3486 c0 -2 7 -7 16 -10 8 -3 12 -2 9 4 -6 10 -25 14 -25 6z"/>
<path d="M1800 3454 c0 -8 5 -12 10 -9 6 4 8 11 5 16 -9 14 -15 11 -15 -7z"/>
<path d="M2064 3446 c21 -32 20 -34 -6 -39 -22 -4 -22 -4 -2 -6 12 0 27 6 34
14 9 10 9 15 1 15 -6 0 -11 6 -11 14 0 8 -7 17 -16 20 -15 6 -15 4 0 -18z"/>
<path d="M1591 3424 c0 -11 3 -14 6 -6 3 7 2 16 -1 19 -3 4 -6 -2 -5 -13z"/>
<path d="M1952 3430 c-42 -10 -92 -57 -91 -84 1 -20 1 -20 6 -1 6 25 23 44 23
27 0 -20 53 -61 79 -62 22 0 117 -67 108 -76 -2 -3 -30 9 -62 26 -31 16 -63
30 -70 30 -8 0 -21 10 -29 22 -9 12 -16 17 -16 10 0 -7 -11 -10 -32 -7 -33 5
-33 5 4 -8 49 -16 55 -25 25 -32 -16 -4 -38 -1 -57 8 -28 15 -30 14 -30 -3 0
-23 80 -86 121 -95 31 -7 49 -30 49 -65 0 -17 -4 -20 -17 -15 -10 4 -29 9 -43
11 -14 3 4 -7 40 -21 121 -46 127 -53 166 -174 10 -30 20 -49 22 -42 4 13 -30
110 -59 171 -10 20 -13 37 -8 38 6 2 -12 17 -38 34 -26 17 -59 40 -73 53 -14
12 -36 25 -50 29 -14 3 -41 19 -59 35 l-35 29 45 1 c24 0 58 1 74 2 35 2 195
-89 220 -124 8 -12 15 -16 15 -10 0 13 -216 220 -245 234 -11 6 -4 -3 15 -20
40 -35 19 -44 -24 -10 -53 42 -19 85 61 76 24 -2 43 -4 41 -2 -18 14 -49 20
-76 15z m109 -342 c11 -21 6 -22 -38 -6 -25 9 -33 18 -33 36 l0 23 31 -18 c17
-10 35 -26 40 -35z"/>
<path d="M1590 3189 c17 -33 35 -72 41 -86 5 -14 12 -23 15 -20 6 5 -73 167
-81 167 -3 0 9 -27 25 -61z"/>
<path d="M1193 3137 c-12 -17 -25 -40 -29 -50 -3 -10 -19 -24 -35 -32 -29 -16
-31 -45 -2 -45 14 0 14 -8 -4 -105 -8 -48 -44 -125 -55 -119 -5 4 -8 47 -6
100 3 113 -7 132 -49 92 -22 -21 -32 -25 -46 -17 -25 14 -44 -4 -57 -52 -11
-38 -68 -109 -89 -109 -6 0 -11 16 -11 36 0 27 7 41 25 56 27 21 51 87 42 112
-9 23 -50 19 -75 -7 -55 -59 -69 -165 -27 -211 30 -33 52 -33 89 -1 20 17 36
23 52 19 20 -5 26 1 53 60 16 36 33 66 38 66 4 0 7 -33 5 -72 -3 -85 12 -123
48 -123 18 0 29 10 45 43 l22 44 21 -36 c22 -38 61 -60 87 -50 9 4 23 21 32
38 9 17 18 25 20 18 7 -18 39 -33 57 -26 12 5 16 21 16 65 0 86 14 109 64 109
38 1 40 2 22 15 -11 8 -37 15 -58 15 -39 0 -39 0 -42 53 -1 21 -23 37 -54 37
-20 0 -22 3 -16 40 12 72 -43 97 -83 37z m51 -45 c-7 -33 -24 -44 -24 -16 0
18 20 58 26 51 2 -2 1 -18 -2 -35z m-31 -87 c-3 -9 -8 -14 -10 -11 -3 3 -2 9
2 15 9 16 15 13 8 -4z m92 -2 c-4 -10 -13 -45 -20 -78 -14 -66 -50 -155 -63
-155 -21 0 -32 29 -32 86 0 39 5 66 13 73 8 6 22 29 32 51 15 34 23 40 48 40
24 0 28 -3 22 -17z"/>
<path d="M1750 3123 c-14 -3 -29 -8 -34 -13 -5 -5 9 -4 30 1 51 11 74 11 74
-1 0 -13 -74 -32 -96 -24 -18 6 -17 5 1 -13 23 -24 95 -53 129 -53 13 0 44
-12 69 -26 36 -20 49 -34 57 -62 21 -77 11 -88 -39 -46 -27 22 -139 59 -149
49 -5 -4 68 -25 88 -25 9 0 38 -18 65 -41 27 -22 63 -49 79 -61 l31 -20 -30
29 c-22 20 -29 36 -27 55 2 14 -2 44 -8 66 -9 34 -18 44 -60 66 -27 14 -56 26
-63 26 -7 0 -37 7 -67 16 l-53 16 42 19 c65 29 39 57 -39 42z"/>
<path d="M2185 3105 c7 -19 18 -78 49 -255 l15 -85 -4 75 c-4 74 -4 75 10 35
9 -26 14 -33 14 -19 1 12 -10 46 -23 75 -13 30 -27 74 -31 99 -4 25 -14 56
-22 70 -9 16 -12 18 -8 5z"/>
<path d="M1660 3028 c0 -8 4 -28 9 -44 5 -16 12 -42 16 -58 3 -15 8 -26 11
-24 2 3 -2 33 -10 68 -15 61 -26 87 -26 58z"/>
<path d="M2491 3011 c-12 -16 -21 -34 -21 -40 0 -6 -4 -11 -10 -11 -5 0 -10 8
-10 18 0 21 -18 42 -37 42 -7 0 -27 -22 -44 -49 -19 -31 -38 -51 -52 -53 -19
-3 -22 -9 -22 -53 0 -46 2 -50 24 -50 21 0 27 7 37 45 6 25 18 59 25 75 13 29
14 28 19 -45 4 -66 7 -75 26 -78 17 -3 24 9 47 87 36 120 50 127 42 19 -7
-100 2 -142 34 -146 12 -2 31 4 42 14 15 13 22 15 31 6 19 -19 56 -14 68 8 15
28 27 25 34 -10 11 -55 84 -63 101 -11 3 10 14 21 25 24 12 3 23 20 29 45 6
22 20 51 31 64 l19 23 1 -81 c0 -64 4 -87 18 -104 21 -26 57 -21 67 11 7 23
14 23 39 4 44 -33 100 -11 112 43 3 15 7 32 9 39 5 16 60 26 82 14 10 -5 26
-12 36 -15 16 -5 14 -11 -14 -60 -38 -69 -36 -100 8 -104 59 -6 104 71 89 152
-6 29 -3 37 15 46 15 9 18 15 10 23 -8 8 -19 5 -40 -11 -35 -25 -61 -20 -61
13 0 40 18 75 35 69 23 -9 19 23 -4 36 -48 25 -82 2 -101 -71 -17 -63 -59 -60
-60 4 0 35 -24 83 -46 91 -9 4 -27 -1 -40 -9 -23 -15 -29 -35 -24 -78 1 -10
-5 -26 -13 -35 -7 -10 -19 -37 -26 -62 -26 -90 -36 -81 -41 35 -3 69 -9 110
-17 112 -6 2 -23 -8 -36 -23 -21 -22 -29 -25 -40 -16 -32 27 -48 4 -71 -98 -7
-33 -32 -67 -42 -57 -7 7 6 102 22 154 4 17 1 25 -12 30 -10 4 -19 2 -22 -5
-3 -9 -18 -11 -51 -6 -44 6 -49 4 -74 -26 -15 -17 -30 -44 -33 -58 -9 -44 -26
-82 -35 -82 -5 0 -9 43 -9 96 0 132 -24 168 -69 105z m649 -68 c0 -48 -11 -54
-34 -21 -19 27 -20 51 -5 80 11 21 12 21 25 3 8 -10 14 -38 14 -62z m-441 -43
c-19 -34 -39 -52 -39 -35 0 17 36 75 47 75 11 0 9 -10 -8 -40z m431 -39 c0 -5
-5 -22 -11 -38 -10 -26 -12 -27 -19 -8 -15 35 -11 55 10 55 11 0 20 -4 20 -9z
m193 -96 c-5 -25 -33 -57 -33 -37 0 17 22 62 30 62 4 0 5 -11 3 -25z"/>
<path d="M1491 2980 c-49 -67 -53 -158 -11 -200 38 -38 67 -24 134 64 27 35
34 51 25 57 -8 5 -26 -10 -51 -41 -53 -67 -78 -74 -78 -22 0 13 16 42 35 65
29 33 35 49 33 77 -3 30 -7 35 -30 38 -22 3 -33 -5 -57 -38z m51 -32 c-7 -7
-12 -8 -12 -2 0 14 12 26 19 19 2 -3 -1 -11 -7 -17z"/>
<path d="M1731 2923 c-19 -4 -21 -7 -10 -14 11 -7 9 -10 -8 -15 -48 -13 -14
-54 45 -54 45 0 94 -25 125 -64 22 -28 27 -46 28 -93 1 -32 3 -50 6 -40 2 9 9
17 14 17 6 0 5 8 -1 20 -6 11 -8 25 -5 31 4 5 -10 34 -30 63 -37 54 -77 76
-137 76 -13 0 -32 6 -42 13 -17 12 -16 14 8 25 14 6 26 16 26 21 0 5 8 12 18
14 22 6 -5 6 -37 0z"/>
<path d="M1692 2780 c0 -19 2 -27 5 -17 2 9 2 25 0 35 -3 9 -5 1 -5 -18z"/>
<path d="M2257 2772 c-4 -24 -19 -76 -33 -115 -45 -127 -84 -289 -82 -347 l1
-55 7 70 c9 79 35 182 86 334 19 57 34 115 32 130 -3 20 -5 17 -11 -17z"/>
<path d="M1681 2714 c0 -11 3 -14 6 -6 3 7 2 16 -1 19 -3 4 -6 -2 -5 -13z"/>
<path d="M1666 2654 c-4 -14 -5 -28 -3 -31 3 -2 8 8 11 23 4 14 5 28 3 31 -3
2 -8 -8 -11 -23z"/>
<path d="M1895 2579 c-3 -19 -7 -142 -9 -274 -2 -132 -7 -249 -10 -260 l-8
-20 13 20 c10 14 15 95 19 290 3 149 5 272 4 274 -2 1 -5 -12 -9 -30z"/>
<path d="M1652 2580 c0 -14 2 -19 5 -12 2 6 2 18 0 25 -3 6 -5 1 -5 -13z"/>
<path d="M1636 2514 c-4 -14 -5 -28 -3 -31 3 -2 8 8 11 23 4 14 5 28 3 31 -3
2 -8 -8 -11 -23z"/>
<path d="M1621 2454 c0 -11 3 -14 6 -6 3 7 2 16 -1 19 -3 4 -6 -2 -5 -13z"/>
<path d="M1606 2379 c-4 -23 -5 -44 -2 -46 2 -2 7 14 11 37 4 23 5 43 2 46 -2
3 -7 -14 -11 -37z"/>
<path d="M1577 2253 c-9 -36 -16 -68 -13 -70 2 -2 12 26 21 62 10 36 16 67 14
70 -3 2 -12 -26 -22 -62z"/>
<path d="M2151 2204 c-1 -35 29 -178 36 -171 2 3 -3 40 -11 83 -23 121 -24
122 -25 88z"/>
<path d="M1542 2129 c-7 -23 -11 -43 -8 -46 6 -6 28 65 24 77 -2 6 -9 -8 -16
-31z"/>
<path d="M1517 2051 c-4 -17 -3 -21 5 -13 5 5 8 16 6 23 -3 8 -7 3 -11 -10z"/>
</g>
</svg>
